<?xml version="1.0" encoding="UTF-8"?>
<svg width="1920px" height="1080px" viewBox="0 0 1920 1080" version="1.1" xmlns="http://www.w3.org/2000/svg" xmlns:xlink="http://www.w3.org/1999/xlink">
    <title>2C957A55-1059-43D3-8848-2FE144AFCCE8</title>
    <defs>
        <rect id="path-1" x="0" y="0.144408973" width="1920" height="1080"></rect>
    </defs>
    <g id="Page-1" stroke="none" stroke-width="1" fill="none" fill-rule="evenodd">
        <g id="1.-登入頁">
            <g id="Combined-Shape-Copy-+-Combined-Shape-Copy拷貝-+-橢圓形-+-橢圓形copy-+-矩形-+-矩形copy-+-矩形copycopycopycopycopycopy-+-矩形copycopycopycopycopycopycopy-+-矩形copycopycopycopycopycopycopycopycopycopycopy-+-矩形copycopycopycopycopycopycopycopycopycopy-+-矩形copycopycopy-+-矩形copycopycopycopycopy-+-三角形-+-三角形copy-+-矩形copycopycopycopycopycopycopycopycopycopycopycopy遮罩" transform="translate(0.000000, -0.144409)">
                <mask id="mask-2" fill="white">
                    <use xlink:href="#path-1"></use>
                </mask>
                <use id="遮罩" fill="#F5F8FD" xlink:href="#path-1"></use>
                <path d="M1310.5,873.144409 C1312.433,873.144409 1314,874.711412 1314,876.644409 C1314,878.577406 1312.433,880.144409 1310.5,880.144409 C1308.567,880.144409 1307,878.577406 1307,876.644409 C1307,874.711412 1308.567,873.144409 1310.5,873.144409 Z M1330.5,873.144409 C1332.433,873.144409 1334,874.711412 1334,876.644409 C1334,878.577406 1332.433,880.144409 1330.5,880.144409 C1328.567,880.144409 1327,878.577406 1327,876.644409 C1327,874.711412 1328.567,873.144409 1330.5,873.144409 Z M1350.5,873.144409 C1352.433,873.144409 1354,874.711412 1354,876.644409 C1354,878.577406 1352.433,880.144409 1350.5,880.144409 C1348.567,880.144409 1347,878.577406 1347,876.644409 C1347,874.711412 1348.567,873.144409 1350.5,873.144409 Z M1371.5,873.144409 C1373.433,873.144409 1375,874.711412 1375,876.644409 C1375,878.577406 1373.433,880.144409 1371.5,880.144409 C1369.567,880.144409 1368,878.577406 1368,876.644409 C1368,874.711412 1369.567,873.144409 1371.5,873.144409 Z M1391.5,873.144409 C1393.433,873.144409 1395,874.711412 1395,876.644409 C1395,878.577406 1393.433,880.144409 1391.5,880.144409 C1389.567,880.144409 1388,878.577406 1388,876.644409 C1388,874.711412 1389.567,873.144409 1391.5,873.144409 Z M1411.5,873.144409 C1413.433,873.144409 1415,874.711412 1415,876.644409 C1415,878.577406 1413.433,880.144409 1411.5,880.144409 C1409.567,880.144409 1408,878.577406 1408,876.644409 C1408,874.711412 1409.567,873.144409 1411.5,873.144409 Z M1431.5,873.144409 C1433.433,873.144409 1435,874.711412 1435,876.644409 C1435,878.577406 1433.433,880.144409 1431.5,880.144409 C1429.567,880.144409 1428,878.577406 1428,876.644409 C1428,874.711412 1429.567,873.144409 1431.5,873.144409 Z M1451.5,873.144409 C1453.433,873.144409 1455,874.711412 1455,876.644409 C1455,878.577406 1453.433,880.144409 1451.5,880.144409 C1449.567,880.144409 1448,878.577406 1448,876.644409 C1448,874.711412 1449.567,873.144409 1451.5,873.144409 Z M1472.5,873.144409 C1474.433,873.144409 1476,874.711412 1476,876.644409 C1476,878.577406 1474.433,880.144409 1472.5,880.144409 C1470.567,880.144409 1469,878.577406 1469,876.644409 C1469,874.711412 1470.567,873.144409 1472.5,873.144409 Z M1492.5,873.144409 C1494.433,873.144409 1496,874.711412 1496,876.644409 C1496,878.577406 1494.433,880.144409 1492.5,880.144409 C1490.567,880.144409 1489,878.577406 1489,876.644409 C1489,874.711412 1490.567,873.144409 1492.5,873.144409 Z M1512.5,873.144409 C1514.433,873.144409 1516,874.711412 1516,876.644409 C1516,878.577406 1514.433,880.144409 1512.5,880.144409 C1510.567,880.144409 1509,878.577406 1509,876.644409 C1509,874.711412 1510.567,873.144409 1512.5,873.144409 Z M1310.5,853.144409 C1312.433,853.144409 1314,854.711412 1314,856.644409 C1314,858.577406 1312.433,860.144409 1310.5,860.144409 C1308.567,860.144409 1307,858.577406 1307,856.644409 C1307,854.711412 1308.567,853.144409 1310.5,853.144409 Z M1330.5,853.144409 C1332.433,853.144409 1334,854.711412 1334,856.644409 C1334,858.577406 1332.433,860.144409 1330.5,860.144409 C1328.567,860.144409 1327,858.577406 1327,856.644409 C1327,854.711412 1328.567,853.144409 1330.5,853.144409 Z M1350.5,853.144409 C1352.433,853.144409 1354,854.711412 1354,856.644409 C1354,858.577406 1352.433,860.144409 1350.5,860.144409 C1348.567,860.144409 1347,858.577406 1347,856.644409 C1347,854.711412 1348.567,853.144409 1350.5,853.144409 Z M1371.5,853.144409 C1373.433,853.144409 1375,854.711412 1375,856.644409 C1375,858.577406 1373.433,860.144409 1371.5,860.144409 C1369.567,860.144409 1368,858.577406 1368,856.644409 C1368,854.711412 1369.567,853.144409 1371.5,853.144409 Z M1391.5,853.144409 C1393.433,853.144409 1395,854.711412 1395,856.644409 C1395,858.577406 1393.433,860.144409 1391.5,860.144409 C1389.567,860.144409 1388,858.577406 1388,856.644409 C1388,854.711412 1389.567,853.144409 1391.5,853.144409 Z M1411.5,853.144409 C1413.433,853.144409 1415,854.711412 1415,856.644409 C1415,858.577406 1413.433,860.144409 1411.5,860.144409 C1409.567,860.144409 1408,858.577406 1408,856.644409 C1408,854.711412 1409.567,853.144409 1411.5,853.144409 Z M1431.5,853.144409 C1433.433,853.144409 1435,854.711412 1435,856.644409 C1435,858.577406 1433.433,860.144409 1431.5,860.144409 C1429.567,860.144409 1428,858.577406 1428,856.644409 C1428,854.711412 1429.567,853.144409 1431.5,853.144409 Z M1451.5,853.144409 C1453.433,853.144409 1455,854.711412 1455,856.644409 C1455,858.577406 1453.433,860.144409 1451.5,860.144409 C1449.567,860.144409 1448,858.577406 1448,856.644409 C1448,854.711412 1449.567,853.144409 1451.5,853.144409 Z M1472.5,853.144409 C1474.433,853.144409 1476,854.711412 1476,856.644409 C1476,858.577406 1474.433,860.144409 1472.5,860.144409 C1470.567,860.144409 1469,858.577406 1469,856.644409 C1469,854.711412 1470.567,853.144409 1472.5,853.144409 Z M1492.5,853.144409 C1494.433,853.144409 1496,854.711412 1496,856.644409 C1496,858.577406 1494.433,860.144409 1492.5,860.144409 C1490.567,860.144409 1489,858.577406 1489,856.644409 C1489,854.711412 1490.567,853.144409 1492.5,853.144409 Z M1512.5,853.144409 C1514.433,853.144409 1516,854.711412 1516,856.644409 C1516,858.577406 1514.433,860.144409 1512.5,860.144409 C1510.567,860.144409 1509,858.577406 1509,856.644409 C1509,854.711412 1510.567,853.144409 1512.5,853.144409 Z M1492.5,833.144409 C1494.433,833.144409 1496,834.711412 1496,836.644409 C1496,838.577406 1494.433,840.144409 1492.5,840.144409 C1490.567,840.144409 1489,838.577406 1489,836.644409 C1489,834.711412 1490.567,833.144409 1492.5,833.144409 Z M1512.5,833.144409 C1514.433,833.144409 1516,834.711412 1516,836.644409 C1516,838.577406 1514.433,840.144409 1512.5,840.144409 C1510.567,840.144409 1509,838.577406 1509,836.644409 C1509,834.711412 1510.567,833.144409 1512.5,833.144409 Z M1310.5,833.144409 C1312.433,833.144409 1314,834.711412 1314,836.644409 C1314,838.577406 1312.433,840.144409 1310.5,840.144409 C1308.567,840.144409 1307,838.577406 1307,836.644409 C1307,834.711412 1308.567,833.144409 1310.5,833.144409 Z M1330.5,833.144409 C1332.433,833.144409 1334,834.711412 1334,836.644409 C1334,838.577406 1332.433,840.144409 1330.5,840.144409 C1328.567,840.144409 1327,838.577406 1327,836.644409 C1327,834.711412 1328.567,833.144409 1330.5,833.144409 Z M1350.5,833.144409 C1352.433,833.144409 1354,834.711412 1354,836.644409 C1354,838.577406 1352.433,840.144409 1350.5,840.144409 C1348.567,840.144409 1347,838.577406 1347,836.644409 C1347,834.711412 1348.567,833.144409 1350.5,833.144409 Z M1371.5,833.144409 C1373.433,833.144409 1375,834.711412 1375,836.644409 C1375,838.577406 1373.433,840.144409 1371.5,840.144409 C1369.567,840.144409 1368,838.577406 1368,836.644409 C1368,834.711412 1369.567,833.144409 1371.5,833.144409 Z M1391.5,833.144409 C1393.433,833.144409 1395,834.711412 1395,836.644409 C1395,838.577406 1393.433,840.144409 1391.5,840.144409 C1389.567,840.144409 1388,838.577406 1388,836.644409 C1388,834.711412 1389.567,833.144409 1391.5,833.144409 Z M1411.5,833.144409 C1413.433,833.144409 1415,834.711412 1415,836.644409 C1415,838.577406 1413.433,840.144409 1411.5,840.144409 C1409.567,840.144409 1408,838.577406 1408,836.644409 C1408,834.711412 1409.567,833.144409 1411.5,833.144409 Z M1431.5,833.144409 C1433.433,833.144409 1435,834.711412 1435,836.644409 C1435,838.577406 1433.433,840.144409 1431.5,840.144409 C1429.567,840.144409 1428,838.577406 1428,836.644409 C1428,834.711412 1429.567,833.144409 1431.5,833.144409 Z M1451.5,833.144409 C1453.433,833.144409 1455,834.711412 1455,836.644409 C1455,838.577406 1453.433,840.144409 1451.5,840.144409 C1449.567,840.144409 1448,838.577406 1448,836.644409 C1448,834.711412 1449.567,833.144409 1451.5,833.144409 Z M1472.5,833.144409 C1474.433,833.144409 1476,834.711412 1476,836.644409 C1476,838.577406 1474.433,840.144409 1472.5,840.144409 C1470.567,840.144409 1469,838.577406 1469,836.644409 C1469,834.711412 1470.567,833.144409 1472.5,833.144409 Z M1310.5,812.144409 C1312.433,812.144409 1314,813.711412 1314,815.644409 C1314,817.577406 1312.433,819.144409 1310.5,819.144409 C1308.567,819.144409 1307,817.577406 1307,815.644409 C1307,813.711412 1308.567,812.144409 1310.5,812.144409 Z M1512.5,812.144409 C1514.433,812.144409 1516,813.711412 1516,815.644409 C1516,817.577406 1514.433,819.144409 1512.5,819.144409 C1510.567,819.144409 1509,817.577406 1509,815.644409 C1509,813.711412 1510.567,812.144409 1512.5,812.144409 Z M1330.5,812.144409 C1332.433,812.144409 1334,813.711412 1334,815.644409 C1334,817.577406 1332.433,819.144409 1330.5,819.144409 C1328.567,819.144409 1327,817.577406 1327,815.644409 C1327,813.711412 1328.567,812.144409 1330.5,812.144409 Z M1350.5,812.144409 C1352.433,812.144409 1354,813.711412 1354,815.644409 C1354,817.577406 1352.433,819.144409 1350.5,819.144409 C1348.567,819.144409 1347,817.577406 1347,815.644409 C1347,813.711412 1348.567,812.144409 1350.5,812.144409 Z M1371.5,812.144409 C1373.433,812.144409 1375,813.711412 1375,815.644409 C1375,817.577406 1373.433,819.144409 1371.5,819.144409 C1369.567,819.144409 1368,817.577406 1368,815.644409 C1368,813.711412 1369.567,812.144409 1371.5,812.144409 Z M1391.5,812.144409 C1393.433,812.144409 1395,813.711412 1395,815.644409 C1395,817.577406 1393.433,819.144409 1391.5,819.144409 C1389.567,819.144409 1388,817.577406 1388,815.644409 C1388,813.711412 1389.567,812.144409 1391.5,812.144409 Z M1411.5,812.144409 C1413.433,812.144409 1415,813.711412 1415,815.644409 C1415,817.577406 1413.433,819.144409 1411.5,819.144409 C1409.567,819.144409 1408,817.577406 1408,815.644409 C1408,813.711412 1409.567,812.144409 1411.5,812.144409 Z M1431.5,812.144409 C1433.433,812.144409 1435,813.711412 1435,815.644409 C1435,817.577406 1433.433,819.144409 1431.5,819.144409 C1429.567,819.144409 1428,817.577406 1428,815.644409 C1428,813.711412 1429.567,812.144409 1431.5,812.144409 Z M1451.5,812.144409 C1453.433,812.144409 1455,813.711412 1455,815.644409 C1455,817.577406 1453.433,819.144409 1451.5,819.144409 C1449.567,819.144409 1448,817.577406 1448,815.644409 C1448,813.711412 1449.567,812.144409 1451.5,812.144409 Z M1472.5,812.144409 C1474.433,812.144409 1476,813.711412 1476,815.644409 C1476,817.577406 1474.433,819.144409 1472.5,819.144409 C1470.567,819.144409 1469,817.577406 1469,815.644409 C1469,813.711412 1470.567,812.144409 1472.5,812.144409 Z M1492.5,812.144409 C1494.433,812.144409 1496,813.711412 1496,815.644409 C1496,817.577406 1494.433,819.144409 1492.5,819.144409 C1490.567,819.144409 1489,817.577406 1489,815.644409 C1489,813.711412 1490.567,812.144409 1492.5,812.144409 Z M1371.5,792.144409 C1373.433,792.144409 1375,793.711412 1375,795.644409 C1375,797.577406 1373.433,799.144409 1371.5,799.144409 C1369.567,799.144409 1368,797.577406 1368,795.644409 C1368,793.711412 1369.567,792.144409 1371.5,792.144409 Z M1411.5,792.144409 C1413.433,792.144409 1415,793.711412 1415,795.644409 C1415,797.577406 1413.433,799.144409 1411.5,799.144409 C1409.567,799.144409 1408,797.577406 1408,795.644409 C1408,793.711412 1409.567,792.144409 1411.5,792.144409 Z M1310.5,792.144409 C1312.433,792.144409 1314,793.711412 1314,795.644409 C1314,797.577406 1312.433,799.144409 1310.5,799.144409 C1308.567,799.144409 1307,797.577406 1307,795.644409 C1307,793.711412 1308.567,792.144409 1310.5,792.144409 Z M1330.5,792.144409 C1332.433,792.144409 1334,793.711412 1334,795.644409 C1334,797.577406 1332.433,799.144409 1330.5,799.144409 C1328.567,799.144409 1327,797.577406 1327,795.644409 C1327,793.711412 1328.567,792.144409 1330.5,792.144409 Z M1350.5,792.144409 C1352.433,792.144409 1354,793.711412 1354,795.644409 C1354,797.577406 1352.433,799.144409 1350.5,799.144409 C1348.567,799.144409 1347,797.577406 1347,795.644409 C1347,793.711412 1348.567,792.144409 1350.5,792.144409 Z M1512.5,792.144409 C1514.433,792.144409 1516,793.711412 1516,795.644409 C1516,797.577406 1514.433,799.144409 1512.5,799.144409 C1510.567,799.144409 1509,797.577406 1509,795.644409 C1509,793.711412 1510.567,792.144409 1512.5,792.144409 Z M1431.5,792.144409 C1433.433,792.144409 1435,793.711412 1435,795.644409 C1435,797.577406 1433.433,799.144409 1431.5,799.144409 C1429.567,799.144409 1428,797.577406 1428,795.644409 C1428,793.711412 1429.567,792.144409 1431.5,792.144409 Z M1451.5,792.144409 C1453.433,792.144409 1455,793.711412 1455,795.644409 C1455,797.577406 1453.433,799.144409 1451.5,799.144409 C1449.567,799.144409 1448,797.577406 1448,795.644409 C1448,793.711412 1449.567,792.144409 1451.5,792.144409 Z M1472.5,792.144409 C1474.433,792.144409 1476,793.711412 1476,795.644409 C1476,797.577406 1474.433,799.144409 1472.5,799.144409 C1470.567,799.144409 1469,797.577406 1469,795.644409 C1469,793.711412 1470.567,792.144409 1472.5,792.144409 Z M1492.5,792.144409 C1494.433,792.144409 1496,793.711412 1496,795.644409 C1496,797.577406 1494.433,799.144409 1492.5,799.144409 C1490.567,799.144409 1489,797.577406 1489,795.644409 C1489,793.711412 1490.567,792.144409 1492.5,792.144409 Z M1391.5,792.144409 C1393.433,792.144409 1395,793.711412 1395,795.644409 C1395,797.577406 1393.433,799.144409 1391.5,799.144409 C1389.567,799.144409 1388,797.577406 1388,795.644409 C1388,793.711412 1389.567,792.144409 1391.5,792.144409 Z M1512.5,772.144409 C1514.433,772.144409 1516,773.711412 1516,775.644409 C1516,777.577406 1514.433,779.144409 1512.5,779.144409 C1510.567,779.144409 1509,777.577406 1509,775.644409 C1509,773.711412 1510.567,772.144409 1512.5,772.144409 Z M1411.5,772.144409 C1413.433,772.144409 1415,773.711412 1415,775.644409 C1415,777.577406 1413.433,779.144409 1411.5,779.144409 C1409.567,779.144409 1408,777.577406 1408,775.644409 C1408,773.711412 1409.567,772.144409 1411.5,772.144409 Z M1330.5,772.144409 C1332.433,772.144409 1334,773.711412 1334,775.644409 C1334,777.577406 1332.433,779.144409 1330.5,779.144409 C1328.567,779.144409 1327,777.577406 1327,775.644409 C1327,773.711412 1328.567,772.144409 1330.5,772.144409 Z M1371.5,772.144409 C1373.433,772.144409 1375,773.711412 1375,775.644409 C1375,777.577406 1373.433,779.144409 1371.5,779.144409 C1369.567,779.144409 1368,777.577406 1368,775.644409 C1368,773.711412 1369.567,772.144409 1371.5,772.144409 Z M1310.5,772.144409 C1312.433,772.144409 1314,773.711412 1314,775.644409 C1314,777.577406 1312.433,779.144409 1310.5,779.144409 C1308.567,779.144409 1307,777.577406 1307,775.644409 C1307,773.711412 1308.567,772.144409 1310.5,772.144409 Z M1492.5,772.144409 C1494.433,772.144409 1496,773.711412 1496,775.644409 C1496,777.577406 1494.433,779.144409 1492.5,779.144409 C1490.567,779.144409 1489,777.577406 1489,775.644409 C1489,773.711412 1490.567,772.144409 1492.5,772.144409 Z M1350.5,772.144409 C1352.433,772.144409 1354,773.711412 1354,775.644409 C1354,777.577406 1352.433,779.144409 1350.5,779.144409 C1348.567,779.144409 1347,777.577406 1347,775.644409 C1347,773.711412 1348.567,772.144409 1350.5,772.144409 Z M1431.5,772.144409 C1433.433,772.144409 1435,773.711412 1435,775.644409 C1435,777.577406 1433.433,779.144409 1431.5,779.144409 C1429.567,779.144409 1428,777.577406 1428,775.644409 C1428,773.711412 1429.567,772.144409 1431.5,772.144409 Z M1391.5,772.144409 C1393.433,772.144409 1395,773.711412 1395,775.644409 C1395,777.577406 1393.433,779.144409 1391.5,779.144409 C1389.567,779.144409 1388,777.577406 1388,775.644409 C1388,773.711412 1389.567,772.144409 1391.5,772.144409 Z M1451.5,772.144409 C1453.433,772.144409 1455,773.711412 1455,775.644409 C1455,777.577406 1453.433,779.144409 1451.5,779.144409 C1449.567,779.144409 1448,777.577406 1448,775.644409 C1448,773.711412 1449.567,772.144409 1451.5,772.144409 Z M1472.5,772.144409 C1474.433,772.144409 1476,773.711412 1476,775.644409 C1476,777.577406 1474.433,779.144409 1472.5,779.144409 C1470.567,779.144409 1469,777.577406 1469,775.644409 C1469,773.711412 1470.567,772.144409 1472.5,772.144409 Z M1330.5,752.144409 C1332.433,752.144409 1334,753.711412 1334,755.644409 C1334,757.577406 1332.433,759.144409 1330.5,759.144409 C1328.567,759.144409 1327,757.577406 1327,755.644409 C1327,753.711412 1328.567,752.144409 1330.5,752.144409 Z M1492.5,752.144409 C1494.433,752.144409 1496,753.711412 1496,755.644409 C1496,757.577406 1494.433,759.144409 1492.5,759.144409 C1490.567,759.144409 1489,757.577406 1489,755.644409 C1489,753.711412 1490.567,752.144409 1492.5,752.144409 Z M1350.5,752.144409 C1352.433,752.144409 1354,753.711412 1354,755.644409 C1354,757.577406 1352.433,759.144409 1350.5,759.144409 C1348.567,759.144409 1347,757.577406 1347,755.644409 C1347,753.711412 1348.567,752.144409 1350.5,752.144409 Z M1411.5,752.144409 C1413.433,752.144409 1415,753.711412 1415,755.644409 C1415,757.577406 1413.433,759.144409 1411.5,759.144409 C1409.567,759.144409 1408,757.577406 1408,755.644409 C1408,753.711412 1409.567,752.144409 1411.5,752.144409 Z M1431.5,752.144409 C1433.433,752.144409 1435,753.711412 1435,755.644409 C1435,757.577406 1433.433,759.144409 1431.5,759.144409 C1429.567,759.144409 1428,757.577406 1428,755.644409 C1428,753.711412 1429.567,752.144409 1431.5,752.144409 Z M1512.5,752.144409 C1514.433,752.144409 1516,753.711412 1516,755.644409 C1516,757.577406 1514.433,759.144409 1512.5,759.144409 C1510.567,759.144409 1509,757.577406 1509,755.644409 C1509,753.711412 1510.567,752.144409 1512.5,752.144409 Z M1310.5,752.144409 C1312.433,752.144409 1314,753.711412 1314,755.644409 C1314,757.577406 1312.433,759.144409 1310.5,759.144409 C1308.567,759.144409 1307,757.577406 1307,755.644409 C1307,753.711412 1308.567,752.144409 1310.5,752.144409 Z M1451.5,752.144409 C1453.433,752.144409 1455,753.711412 1455,755.644409 C1455,757.577406 1453.433,759.144409 1451.5,759.144409 C1449.567,759.144409 1448,757.577406 1448,755.644409 C1448,753.711412 1449.567,752.144409 1451.5,752.144409 Z M1472.5,752.144409 C1474.433,752.144409 1476,753.711412 1476,755.644409 C1476,757.577406 1474.433,759.144409 1472.5,759.144409 C1470.567,759.144409 1469,757.577406 1469,755.644409 C1469,753.711412 1470.567,752.144409 1472.5,752.144409 Z M1371.5,752.144409 C1373.433,752.144409 1375,753.711412 1375,755.644409 C1375,757.577406 1373.433,759.144409 1371.5,759.144409 C1369.567,759.144409 1368,757.577406 1368,755.644409 C1368,753.711412 1369.567,752.144409 1371.5,752.144409 Z M1391.5,752.144409 C1393.433,752.144409 1395,753.711412 1395,755.644409 C1395,757.577406 1393.433,759.144409 1391.5,759.144409 C1389.567,759.144409 1388,757.577406 1388,755.644409 C1388,753.711412 1389.567,752.144409 1391.5,752.144409 Z M1330.5,732.144409 C1332.433,732.144409 1334,733.711412 1334,735.644409 C1334,737.577406 1332.433,739.144409 1330.5,739.144409 C1328.567,739.144409 1327,737.577406 1327,735.644409 C1327,733.711412 1328.567,732.144409 1330.5,732.144409 Z M1492.5,732.144409 C1494.433,732.144409 1496,733.711412 1496,735.644409 C1496,737.577406 1494.433,739.144409 1492.5,739.144409 C1490.567,739.144409 1489,737.577406 1489,735.644409 C1489,733.711412 1490.567,732.144409 1492.5,732.144409 Z M1350.5,732.144409 C1352.433,732.144409 1354,733.711412 1354,735.644409 C1354,737.577406 1352.433,739.144409 1350.5,739.144409 C1348.567,739.144409 1347,737.577406 1347,735.644409 C1347,733.711412 1348.567,732.144409 1350.5,732.144409 Z M1411.5,732.144409 C1413.433,732.144409 1415,733.711412 1415,735.644409 C1415,737.577406 1413.433,739.144409 1411.5,739.144409 C1409.567,739.144409 1408,737.577406 1408,735.644409 C1408,733.711412 1409.567,732.144409 1411.5,732.144409 Z M1431.5,732.144409 C1433.433,732.144409 1435,733.711412 1435,735.644409 C1435,737.577406 1433.433,739.144409 1431.5,739.144409 C1429.567,739.144409 1428,737.577406 1428,735.644409 C1428,733.711412 1429.567,732.144409 1431.5,732.144409 Z M1512.5,732.144409 C1514.433,732.144409 1516,733.711412 1516,735.644409 C1516,737.577406 1514.433,739.144409 1512.5,739.144409 C1510.567,739.144409 1509,737.577406 1509,735.644409 C1509,733.711412 1510.567,732.144409 1512.5,732.144409 Z M1310.5,732.144409 C1312.433,732.144409 1314,733.711412 1314,735.644409 C1314,737.577406 1312.433,739.144409 1310.5,739.144409 C1308.567,739.144409 1307,737.577406 1307,735.644409 C1307,733.711412 1308.567,732.144409 1310.5,732.144409 Z M1451.5,732.144409 C1453.433,732.144409 1455,733.711412 1455,735.644409 C1455,737.577406 1453.433,739.144409 1451.5,739.144409 C1449.567,739.144409 1448,737.577406 1448,735.644409 C1448,733.711412 1449.567,732.144409 1451.5,732.144409 Z M1472.5,732.144409 C1474.433,732.144409 1476,733.711412 1476,735.644409 C1476,737.577406 1474.433,739.144409 1472.5,739.144409 C1470.567,739.144409 1469,737.577406 1469,735.644409 C1469,733.711412 1470.567,732.144409 1472.5,732.144409 Z M1371.5,732.144409 C1373.433,732.144409 1375,733.711412 1375,735.644409 C1375,737.577406 1373.433,739.144409 1371.5,739.144409 C1369.567,739.144409 1368,737.577406 1368,735.644409 C1368,733.711412 1369.567,732.144409 1371.5,732.144409 Z M1391.5,732.144409 C1393.433,732.144409 1395,733.711412 1395,735.644409 C1395,737.577406 1393.433,739.144409 1391.5,739.144409 C1389.567,739.144409 1388,737.577406 1388,735.644409 C1388,733.711412 1389.567,732.144409 1391.5,732.144409 Z M1310.5,711.144409 C1312.433,711.144409 1314,712.711412 1314,714.644409 C1314,716.577406 1312.433,718.144409 1310.5,718.144409 C1308.567,718.144409 1307,716.577406 1307,714.644409 C1307,712.711412 1308.567,711.144409 1310.5,711.144409 Z M1391.5,711.144409 C1393.433,711.144409 1395,712.711412 1395,714.644409 C1395,716.577406 1393.433,718.144409 1391.5,718.144409 C1389.567,718.144409 1388,716.577406 1388,714.644409 C1388,712.711412 1389.567,711.144409 1391.5,711.144409 Z M1330.5,711.144409 C1332.433,711.144409 1334,712.711412 1334,714.644409 C1334,716.577406 1332.433,718.144409 1330.5,718.144409 C1328.567,718.144409 1327,716.577406 1327,714.644409 C1327,712.711412 1328.567,711.144409 1330.5,711.144409 Z M1492.5,711.144409 C1494.433,711.144409 1496,712.711412 1496,714.644409 C1496,716.577406 1494.433,718.144409 1492.5,718.144409 C1490.567,718.144409 1489,716.577406 1489,714.644409 C1489,712.711412 1490.567,711.144409 1492.5,711.144409 Z M1350.5,711.144409 C1352.433,711.144409 1354,712.711412 1354,714.644409 C1354,716.577406 1352.433,718.144409 1350.5,718.144409 C1348.567,718.144409 1347,716.577406 1347,714.644409 C1347,712.711412 1348.567,711.144409 1350.5,711.144409 Z M1411.5,711.144409 C1413.433,711.144409 1415,712.711412 1415,714.644409 C1415,716.577406 1413.433,718.144409 1411.5,718.144409 C1409.567,718.144409 1408,716.577406 1408,714.644409 C1408,712.711412 1409.567,711.144409 1411.5,711.144409 Z M1431.5,711.144409 C1433.433,711.144409 1435,712.711412 1435,714.644409 C1435,716.577406 1433.433,718.144409 1431.5,718.144409 C1429.567,718.144409 1428,716.577406 1428,714.644409 C1428,712.711412 1429.567,711.144409 1431.5,711.144409 Z M1512.5,711.144409 C1514.433,711.144409 1516,712.711412 1516,714.644409 C1516,716.577406 1514.433,718.144409 1512.5,718.144409 C1510.567,718.144409 1509,716.577406 1509,714.644409 C1509,712.711412 1510.567,711.144409 1512.5,711.144409 Z M1451.5,711.144409 C1453.433,711.144409 1455,712.711412 1455,714.644409 C1455,716.577406 1453.433,718.144409 1451.5,718.144409 C1449.567,718.144409 1448,716.577406 1448,714.644409 C1448,712.711412 1449.567,711.144409 1451.5,711.144409 Z M1472.5,711.144409 C1474.433,711.144409 1476,712.711412 1476,714.644409 C1476,716.577406 1474.433,718.144409 1472.5,718.144409 C1470.567,718.144409 1469,716.577406 1469,714.644409 C1469,712.711412 1470.567,711.144409 1472.5,711.144409 Z M1371.5,711.144409 C1373.433,711.144409 1375,712.711412 1375,714.644409 C1375,716.577406 1373.433,718.144409 1371.5,718.144409 C1369.567,718.144409 1368,716.577406 1368,714.644409 C1368,712.711412 1369.567,711.144409 1371.5,711.144409 Z M1391.5,691.144409 C1393.433,691.144409 1395,692.711412 1395,694.644409 C1395,696.577406 1393.433,698.144409 1391.5,698.144409 C1389.567,698.144409 1388,696.577406 1388,694.644409 C1388,692.711412 1389.567,691.144409 1391.5,691.144409 Z M1512.5,691.144409 C1514.433,691.144409 1516,692.711412 1516,694.644409 C1516,696.577406 1514.433,698.144409 1512.5,698.144409 C1510.567,698.144409 1509,696.577406 1509,694.644409 C1509,692.711412 1510.567,691.144409 1512.5,691.144409 Z M1371.5,691.144409 C1373.433,691.144409 1375,692.711412 1375,694.644409 C1375,696.577406 1373.433,698.144409 1371.5,698.144409 C1369.567,698.144409 1368,696.577406 1368,694.644409 C1368,692.711412 1369.567,691.144409 1371.5,691.144409 Z M1411.5,691.144409 C1413.433,691.144409 1415,692.711412 1415,694.644409 C1415,696.577406 1413.433,698.144409 1411.5,698.144409 C1409.567,698.144409 1408,696.577406 1408,694.644409 C1408,692.711412 1409.567,691.144409 1411.5,691.144409 Z M1451.5,691.144409 C1453.433,691.144409 1455,692.711412 1455,694.644409 C1455,696.577406 1453.433,698.144409 1451.5,698.144409 C1449.567,698.144409 1448,696.577406 1448,694.644409 C1448,692.711412 1449.567,691.144409 1451.5,691.144409 Z M1310.5,691.144409 C1312.433,691.144409 1314,692.711412 1314,694.644409 C1314,696.577406 1312.433,698.144409 1310.5,698.144409 C1308.567,698.144409 1307,696.577406 1307,694.644409 C1307,692.711412 1308.567,691.144409 1310.5,691.144409 Z M1472.5,691.144409 C1474.433,691.144409 1476,692.711412 1476,694.644409 C1476,696.577406 1474.433,698.144409 1472.5,698.144409 C1470.567,698.144409 1469,696.577406 1469,694.644409 C1469,692.711412 1470.567,691.144409 1472.5,691.144409 Z M1330.5,691.144409 C1332.433,691.144409 1334,692.711412 1334,694.644409 C1334,696.577406 1332.433,698.144409 1330.5,698.144409 C1328.567,698.144409 1327,696.577406 1327,694.644409 C1327,692.711412 1328.567,691.144409 1330.5,691.144409 Z M1350.5,691.144409 C1352.433,691.144409 1354,692.711412 1354,694.644409 C1354,696.577406 1352.433,698.144409 1350.5,698.144409 C1348.567,698.144409 1347,696.577406 1347,694.644409 C1347,692.711412 1348.567,691.144409 1350.5,691.144409 Z M1492.5,691.144409 C1494.433,691.144409 1496,692.711412 1496,694.644409 C1496,696.577406 1494.433,698.144409 1492.5,698.144409 C1490.567,698.144409 1489,696.577406 1489,694.644409 C1489,692.711412 1490.567,691.144409 1492.5,691.144409 Z M1431.5,691.144409 C1433.433,691.144409 1435,692.711412 1435,694.644409 C1435,696.577406 1433.433,698.144409 1431.5,698.144409 C1429.567,698.144409 1428,696.577406 1428,694.644409 C1428,692.711412 1429.567,691.144409 1431.5,691.144409 Z M1310.5,671.144409 C1312.433,671.144409 1314,672.711412 1314,674.644409 C1314,676.577406 1312.433,678.144409 1310.5,678.144409 C1308.567,678.144409 1307,676.577406 1307,674.644409 C1307,672.711412 1308.567,671.144409 1310.5,671.144409 Z M1330.5,671.144409 C1332.433,671.144409 1334,672.711412 1334,674.644409 C1334,676.577406 1332.433,678.144409 1330.5,678.144409 C1328.567,678.144409 1327,676.577406 1327,674.644409 C1327,672.711412 1328.567,671.144409 1330.5,671.144409 Z M1350.5,671.144409 C1352.433,671.144409 1354,672.711412 1354,674.644409 C1354,676.577406 1352.433,678.144409 1350.5,678.144409 C1348.567,678.144409 1347,676.577406 1347,674.644409 C1347,672.711412 1348.567,671.144409 1350.5,671.144409 Z M1371.5,671.144409 C1373.433,671.144409 1375,672.711412 1375,674.644409 C1375,676.577406 1373.433,678.144409 1371.5,678.144409 C1369.567,678.144409 1368,676.577406 1368,674.644409 C1368,672.711412 1369.567,671.144409 1371.5,671.144409 Z M1391.5,671.144409 C1393.433,671.144409 1395,672.711412 1395,674.644409 C1395,676.577406 1393.433,678.144409 1391.5,678.144409 C1389.567,678.144409 1388,676.577406 1388,674.644409 C1388,672.711412 1389.567,671.144409 1391.5,671.144409 Z M1411.5,671.144409 C1413.433,671.144409 1415,672.711412 1415,674.644409 C1415,676.577406 1413.433,678.144409 1411.5,678.144409 C1409.567,678.144409 1408,676.577406 1408,674.644409 C1408,672.711412 1409.567,671.144409 1411.5,671.144409 Z M1431.5,671.144409 C1433.433,671.144409 1435,672.711412 1435,674.644409 C1435,676.577406 1433.433,678.144409 1431.5,678.144409 C1429.567,678.144409 1428,676.577406 1428,674.644409 C1428,672.711412 1429.567,671.144409 1431.5,671.144409 Z M1451.5,671.144409 C1453.433,671.144409 1455,672.711412 1455,674.644409 C1455,676.577406 1453.433,678.144409 1451.5,678.144409 C1449.567,678.144409 1448,676.577406 1448,674.644409 C1448,672.711412 1449.567,671.144409 1451.5,671.144409 Z M1472.5,671.144409 C1474.433,671.144409 1476,672.711412 1476,674.644409 C1476,676.577406 1474.433,678.144409 1472.5,678.144409 C1470.567,678.144409 1469,676.577406 1469,674.644409 C1469,672.711412 1470.567,671.144409 1472.5,671.144409 Z M1492.5,671.144409 C1494.433,671.144409 1496,672.711412 1496,674.644409 C1496,676.577406 1494.433,678.144409 1492.5,678.144409 C1490.567,678.144409 1489,676.577406 1489,674.644409 C1489,672.711412 1490.567,671.144409 1492.5,671.144409 Z M1512.5,671.144409 C1514.433,671.144409 1516,672.711412 1516,674.644409 C1516,676.577406 1514.433,678.144409 1512.5,678.144409 C1510.567,678.144409 1509,676.577406 1509,674.644409 C1509,672.711412 1510.567,671.144409 1512.5,671.144409 Z" id="Combined-Shape-Copy" fill="#64C4ED" fill-rule="nonzero" opacity="0.426060268" mask="url(#mask-2)"></path>
                <path d="M309.5,497.668362 C313.089851,497.668362 316,500.578511 316,504.168362 C316,507.758213 313.089851,510.668362 309.5,510.668362 C305.910149,510.668362 303,507.758213 303,504.168362 C303,500.578511 305.910149,497.668362 309.5,497.668362 Z M346.269553,497.668362 C349.859403,497.668362 352.769553,500.578511 352.769553,504.168362 C352.769553,507.758213 349.859403,510.668362 346.269553,510.668362 C342.679702,510.668362 339.769553,507.758213 339.769553,504.168362 C339.769553,500.578511 342.679702,497.668362 346.269553,497.668362 Z M383.039105,497.668362 C386.628956,497.668362 389.539105,500.578511 389.539105,504.168362 C389.539105,507.758213 386.628956,510.668362 383.039105,510.668362 C379.449254,510.668362 376.539105,507.758213 376.539105,504.168362 C376.539105,500.578511 379.449254,497.668362 383.039105,497.668362 Z M421.222871,497.668362 C424.812722,497.668362 427.722871,500.578511 427.722871,504.168362 C427.722871,507.758213 424.812722,510.668362 421.222871,510.668362 C417.633021,510.668362 414.722871,507.758213 414.722871,504.168362 C414.722871,500.578511 417.633021,497.668362 421.222871,497.668362 Z M457.992424,497.668362 C461.582275,497.668362 464.492424,500.578511 464.492424,504.168362 C464.492424,507.758213 461.582275,510.668362 457.992424,510.668362 C454.402573,510.668362 451.492424,507.758213 451.492424,504.168362 C451.492424,500.578511 454.402573,497.668362 457.992424,497.668362 Z M494.761977,497.668362 C498.351828,497.668362 501.261977,500.578511 501.261977,504.168362 C501.261977,507.758213 498.351828,510.668362 494.761977,510.668362 C491.172126,510.668362 488.261977,507.758213 488.261977,504.168362 C488.261977,500.578511 491.172126,497.668362 494.761977,497.668362 Z M531.531529,497.668362 C535.12138,497.668362 538.031529,500.578511 538.031529,504.168362 C538.031529,507.758213 535.12138,510.668362 531.531529,510.668362 C527.941678,510.668362 525.031529,507.758213 525.031529,504.168362 C525.031529,500.578511 527.941678,497.668362 531.531529,497.668362 Z M568.301082,497.668362 C571.890933,497.668362 574.801082,500.578511 574.801082,504.168362 C574.801082,507.758213 571.890933,510.668362 568.301082,510.668362 C564.711231,510.668362 561.801082,507.758213 561.801082,504.168362 C561.801082,500.578511 564.711231,497.668362 568.301082,497.668362 Z M606.484848,497.668362 C610.074699,497.668362 612.984848,500.578511 612.984848,504.168362 C612.984848,507.758213 610.074699,510.668362 606.484848,510.668362 C602.894997,510.668362 599.984848,507.758213 599.984848,504.168362 C599.984848,500.578511 602.894997,497.668362 606.484848,497.668362 Z M643.254401,497.668362 C646.844252,497.668362 649.754401,500.578511 649.754401,504.168362 C649.754401,507.758213 646.844252,510.668362 643.254401,510.668362 C639.66455,510.668362 636.754401,507.758213 636.754401,504.168362 C636.754401,500.578511 639.66455,497.668362 643.254401,497.668362 Z M680.023953,497.668362 C683.613804,497.668362 686.523953,500.578511 686.523953,504.168362 C686.523953,507.758213 683.613804,510.668362 680.023953,510.668362 C676.434102,510.668362 673.523953,507.758213 673.523953,504.168362 C673.523953,500.578511 676.434102,497.668362 680.023953,497.668362 Z M309.5,460.89881 C313.089851,460.89881 316,463.808959 316,467.39881 C316,470.988661 313.089851,473.89881 309.5,473.89881 C305.910149,473.89881 303,470.988661 303,467.39881 C303,463.808959 305.910149,460.89881 309.5,460.89881 Z M346.269553,460.89881 C349.859403,460.89881 352.769553,463.808959 352.769553,467.39881 C352.769553,470.988661 349.859403,473.89881 346.269553,473.89881 C342.679702,473.89881 339.769553,470.988661 339.769553,467.39881 C339.769553,463.808959 342.679702,460.89881 346.269553,460.89881 Z M383.039105,460.89881 C386.628956,460.89881 389.539105,463.808959 389.539105,467.39881 C389.539105,470.988661 386.628956,473.89881 383.039105,473.89881 C379.449254,473.89881 376.539105,470.988661 376.539105,467.39881 C376.539105,463.808959 379.449254,460.89881 383.039105,460.89881 Z M421.222871,460.89881 C424.812722,460.89881 427.722871,463.808959 427.722871,467.39881 C427.722871,470.988661 424.812722,473.89881 421.222871,473.89881 C417.633021,473.89881 414.722871,470.988661 414.722871,467.39881 C414.722871,463.808959 417.633021,460.89881 421.222871,460.89881 Z M457.992424,460.89881 C461.582275,460.89881 464.492424,463.808959 464.492424,467.39881 C464.492424,470.988661 461.582275,473.89881 457.992424,473.89881 C454.402573,473.89881 451.492424,470.988661 451.492424,467.39881 C451.492424,463.808959 454.402573,460.89881 457.992424,460.89881 Z M494.761977,460.89881 C498.351828,460.89881 501.261977,463.808959 501.261977,467.39881 C501.261977,470.988661 498.351828,473.89881 494.761977,473.89881 C491.172126,473.89881 488.261977,470.988661 488.261977,467.39881 C488.261977,463.808959 491.172126,460.89881 494.761977,460.89881 Z M531.531529,460.89881 C535.12138,460.89881 538.031529,463.808959 538.031529,467.39881 C538.031529,470.988661 535.12138,473.89881 531.531529,473.89881 C527.941678,473.89881 525.031529,470.988661 525.031529,467.39881 C525.031529,463.808959 527.941678,460.89881 531.531529,460.89881 Z M568.301082,460.89881 C571.890933,460.89881 574.801082,463.808959 574.801082,467.39881 C574.801082,470.988661 571.890933,473.89881 568.301082,473.89881 C564.711231,473.89881 561.801082,470.988661 561.801082,467.39881 C561.801082,463.808959 564.711231,460.89881 568.301082,460.89881 Z M606.484848,460.89881 C610.074699,460.89881 612.984848,463.808959 612.984848,467.39881 C612.984848,470.988661 610.074699,473.89881 606.484848,473.89881 C602.894997,473.89881 599.984848,470.988661 599.984848,467.39881 C599.984848,463.808959 602.894997,460.89881 606.484848,460.89881 Z M643.254401,460.89881 C646.844252,460.89881 649.754401,463.808959 649.754401,467.39881 C649.754401,470.988661 646.844252,473.89881 643.254401,473.89881 C639.66455,473.89881 636.754401,470.988661 636.754401,467.39881 C636.754401,463.808959 639.66455,460.89881 643.254401,460.89881 Z M680.023953,460.89881 C683.613804,460.89881 686.523953,463.808959 686.523953,467.39881 C686.523953,470.988661 683.613804,473.89881 680.023953,473.89881 C676.434102,473.89881 673.523953,470.988661 673.523953,467.39881 C673.523953,463.808959 676.434102,460.89881 680.023953,460.89881 Z M643.254401,424.129257 C646.844252,424.129257 649.754401,427.039406 649.754401,430.629257 C649.754401,434.219108 646.844252,437.129257 643.254401,437.129257 C639.66455,437.129257 636.754401,434.219108 636.754401,430.629257 C636.754401,427.039406 639.66455,424.129257 643.254401,424.129257 Z M680.023953,424.129257 C683.613804,424.129257 686.523953,427.039406 686.523953,430.629257 C686.523953,434.219108 683.613804,437.129257 680.023953,437.129257 C676.434102,437.129257 673.523953,434.219108 673.523953,430.629257 C673.523953,427.039406 676.434102,424.129257 680.023953,424.129257 Z M309.5,424.129257 C313.089851,424.129257 316,427.039406 316,430.629257 C316,434.219108 313.089851,437.129257 309.5,437.129257 C305.910149,437.129257 303,434.219108 303,430.629257 C303,427.039406 305.910149,424.129257 309.5,424.129257 Z M346.269553,424.129257 C349.859403,424.129257 352.769553,427.039406 352.769553,430.629257 C352.769553,434.219108 349.859403,437.129257 346.269553,437.129257 C342.679702,437.129257 339.769553,434.219108 339.769553,430.629257 C339.769553,427.039406 342.679702,424.129257 346.269553,424.129257 Z M383.039105,424.129257 C386.628956,424.129257 389.539105,427.039406 389.539105,430.629257 C389.539105,434.219108 386.628956,437.129257 383.039105,437.129257 C379.449254,437.129257 376.539105,434.219108 376.539105,430.629257 C376.539105,427.039406 379.449254,424.129257 383.039105,424.129257 Z M421.222871,424.129257 C424.812722,424.129257 427.722871,427.039406 427.722871,430.629257 C427.722871,434.219108 424.812722,437.129257 421.222871,437.129257 C417.633021,437.129257 414.722871,434.219108 414.722871,430.629257 C414.722871,427.039406 417.633021,424.129257 421.222871,424.129257 Z M457.992424,424.129257 C461.582275,424.129257 464.492424,427.039406 464.492424,430.629257 C464.492424,434.219108 461.582275,437.129257 457.992424,437.129257 C454.402573,437.129257 451.492424,434.219108 451.492424,430.629257 C451.492424,427.039406 454.402573,424.129257 457.992424,424.129257 Z M494.761977,424.129257 C498.351828,424.129257 501.261977,427.039406 501.261977,430.629257 C501.261977,434.219108 498.351828,437.129257 494.761977,437.129257 C491.172126,437.129257 488.261977,434.219108 488.261977,430.629257 C488.261977,427.039406 491.172126,424.129257 494.761977,424.129257 Z M531.531529,424.129257 C535.12138,424.129257 538.031529,427.039406 538.031529,430.629257 C538.031529,434.219108 535.12138,437.129257 531.531529,437.129257 C527.941678,437.129257 525.031529,434.219108 525.031529,430.629257 C525.031529,427.039406 527.941678,424.129257 531.531529,424.129257 Z M568.301082,424.129257 C571.890933,424.129257 574.801082,427.039406 574.801082,430.629257 C574.801082,434.219108 571.890933,437.129257 568.301082,437.129257 C564.711231,437.129257 561.801082,434.219108 561.801082,430.629257 C561.801082,427.039406 564.711231,424.129257 568.301082,424.129257 Z M606.484848,424.129257 C610.074699,424.129257 612.984848,427.039406 612.984848,430.629257 C612.984848,434.219108 610.074699,437.129257 606.484848,437.129257 C602.894997,437.129257 599.984848,434.219108 599.984848,430.629257 C599.984848,427.039406 602.894997,424.129257 606.484848,424.129257 Z M309.5,385.945491 C313.089851,385.945491 316,388.85564 316,392.445491 C316,396.035342 313.089851,398.945491 309.5,398.945491 C305.910149,398.945491 303,396.035342 303,392.445491 C303,388.85564 305.910149,385.945491 309.5,385.945491 Z M680.023953,385.945491 C683.613804,385.945491 686.523953,388.85564 686.523953,392.445491 C686.523953,396.035342 683.613804,398.945491 680.023953,398.945491 C676.434102,398.945491 673.523953,396.035342 673.523953,392.445491 C673.523953,388.85564 676.434102,385.945491 680.023953,385.945491 Z M346.269553,385.945491 C349.859403,385.945491 352.769553,388.85564 352.769553,392.445491 C352.769553,396.035342 349.859403,398.945491 346.269553,398.945491 C342.679702,398.945491 339.769553,396.035342 339.769553,392.445491 C339.769553,388.85564 342.679702,385.945491 346.269553,385.945491 Z M383.039105,385.945491 C386.628956,385.945491 389.539105,388.85564 389.539105,392.445491 C389.539105,396.035342 386.628956,398.945491 383.039105,398.945491 C379.449254,398.945491 376.539105,396.035342 376.539105,392.445491 C376.539105,388.85564 379.449254,385.945491 383.039105,385.945491 Z M421.222871,385.945491 C424.812722,385.945491 427.722871,388.85564 427.722871,392.445491 C427.722871,396.035342 424.812722,398.945491 421.222871,398.945491 C417.633021,398.945491 414.722871,396.035342 414.722871,392.445491 C414.722871,388.85564 417.633021,385.945491 421.222871,385.945491 Z M457.992424,385.945491 C461.582275,385.945491 464.492424,388.85564 464.492424,392.445491 C464.492424,396.035342 461.582275,398.945491 457.992424,398.945491 C454.402573,398.945491 451.492424,396.035342 451.492424,392.445491 C451.492424,388.85564 454.402573,385.945491 457.992424,385.945491 Z M494.761977,385.945491 C498.351828,385.945491 501.261977,388.85564 501.261977,392.445491 C501.261977,396.035342 498.351828,398.945491 494.761977,398.945491 C491.172126,398.945491 488.261977,396.035342 488.261977,392.445491 C488.261977,388.85564 491.172126,385.945491 494.761977,385.945491 Z M531.531529,385.945491 C535.12138,385.945491 538.031529,388.85564 538.031529,392.445491 C538.031529,396.035342 535.12138,398.945491 531.531529,398.945491 C527.941678,398.945491 525.031529,396.035342 525.031529,392.445491 C525.031529,388.85564 527.941678,385.945491 531.531529,385.945491 Z M568.301082,385.945491 C571.890933,385.945491 574.801082,388.85564 574.801082,392.445491 C574.801082,396.035342 571.890933,398.945491 568.301082,398.945491 C564.711231,398.945491 561.801082,396.035342 561.801082,392.445491 C561.801082,388.85564 564.711231,385.945491 568.301082,385.945491 Z M606.484848,385.945491 C610.074699,385.945491 612.984848,388.85564 612.984848,392.445491 C612.984848,396.035342 610.074699,398.945491 606.484848,398.945491 C602.894997,398.945491 599.984848,396.035342 599.984848,392.445491 C599.984848,388.85564 602.894997,385.945491 606.484848,385.945491 Z M643.254401,385.945491 C646.844252,385.945491 649.754401,388.85564 649.754401,392.445491 C649.754401,396.035342 646.844252,398.945491 643.254401,398.945491 C639.66455,398.945491 636.754401,396.035342 636.754401,392.445491 C636.754401,388.85564 639.66455,385.945491 643.254401,385.945491 Z M421.222871,349.175938 C424.812722,349.175938 427.722871,352.086087 427.722871,355.675938 C427.722871,359.265789 424.812722,362.175938 421.222871,362.175938 C417.633021,362.175938 414.722871,359.265789 414.722871,355.675938 C414.722871,352.086087 417.633021,349.175938 421.222871,349.175938 Z M494.761977,349.175938 C498.351828,349.175938 501.261977,352.086087 501.261977,355.675938 C501.261977,359.265789 498.351828,362.175938 494.761977,362.175938 C491.172126,362.175938 488.261977,359.265789 488.261977,355.675938 C488.261977,352.086087 491.172126,349.175938 494.761977,349.175938 Z M309.5,349.175938 C313.089851,349.175938 316,352.086087 316,355.675938 C316,359.265789 313.089851,362.175938 309.5,362.175938 C305.910149,362.175938 303,359.265789 303,355.675938 C303,352.086087 305.910149,349.175938 309.5,349.175938 Z M346.269553,349.175938 C349.859403,349.175938 352.769553,352.086087 352.769553,355.675938 C352.769553,359.265789 349.859403,362.175938 346.269553,362.175938 C342.679702,362.175938 339.769553,359.265789 339.769553,355.675938 C339.769553,352.086087 342.679702,349.175938 346.269553,349.175938 Z M383.039105,349.175938 C386.628956,349.175938 389.539105,352.086087 389.539105,355.675938 C389.539105,359.265789 386.628956,362.175938 383.039105,362.175938 C379.449254,362.175938 376.539105,359.265789 376.539105,355.675938 C376.539105,352.086087 379.449254,349.175938 383.039105,349.175938 Z M680.023953,349.175938 C683.613804,349.175938 686.523953,352.086087 686.523953,355.675938 C686.523953,359.265789 683.613804,362.175938 680.023953,362.175938 C676.434102,362.175938 673.523953,359.265789 673.523953,355.675938 C673.523953,352.086087 676.434102,349.175938 680.023953,349.175938 Z M531.531529,349.175938 C535.12138,349.175938 538.031529,352.086087 538.031529,355.675938 C538.031529,359.265789 535.12138,362.175938 531.531529,362.175938 C527.941678,362.175938 525.031529,359.265789 525.031529,355.675938 C525.031529,352.086087 527.941678,349.175938 531.531529,349.175938 Z M568.301082,349.175938 C571.890933,349.175938 574.801082,352.086087 574.801082,355.675938 C574.801082,359.265789 571.890933,362.175938 568.301082,362.175938 C564.711231,362.175938 561.801082,359.265789 561.801082,355.675938 C561.801082,352.086087 564.711231,349.175938 568.301082,349.175938 Z M606.484848,349.175938 C610.074699,349.175938 612.984848,352.086087 612.984848,355.675938 C612.984848,359.265789 610.074699,362.175938 606.484848,362.175938 C602.894997,362.175938 599.984848,359.265789 599.984848,355.675938 C599.984848,352.086087 602.894997,349.175938 606.484848,349.175938 Z M643.254401,349.175938 C646.844252,349.175938 649.754401,352.086087 649.754401,355.675938 C649.754401,359.265789 646.844252,362.175938 643.254401,362.175938 C639.66455,362.175938 636.754401,359.265789 636.754401,355.675938 C636.754401,352.086087 639.66455,349.175938 643.254401,349.175938 Z M457.992424,349.175938 C461.582275,349.175938 464.492424,352.086087 464.492424,355.675938 C464.492424,359.265789 461.582275,362.175938 457.992424,362.175938 C454.402573,362.175938 451.492424,359.265789 451.492424,355.675938 C451.492424,352.086087 454.402573,349.175938 457.992424,349.175938 Z M680.023953,312.406386 C683.613804,312.406386 686.523953,315.316535 686.523953,318.906386 C686.523953,322.496237 683.613804,325.406386 680.023953,325.406386 C676.434102,325.406386 673.523953,322.496237 673.523953,318.906386 C673.523953,315.316535 676.434102,312.406386 680.023953,312.406386 Z M494.761977,312.406386 C498.351828,312.406386 501.261977,315.316535 501.261977,318.906386 C501.261977,322.496237 498.351828,325.406386 494.761977,325.406386 C491.172126,325.406386 488.261977,322.496237 488.261977,318.906386 C488.261977,315.316535 491.172126,312.406386 494.761977,312.406386 Z M346.269553,312.406386 C349.859403,312.406386 352.769553,315.316535 352.769553,318.906386 C352.769553,322.496237 349.859403,325.406386 346.269553,325.406386 C342.679702,325.406386 339.769553,322.496237 339.769553,318.906386 C339.769553,315.316535 342.679702,312.406386 346.269553,312.406386 Z M421.222871,312.406386 C424.812722,312.406386 427.722871,315.316535 427.722871,318.906386 C427.722871,322.496237 424.812722,325.406386 421.222871,325.406386 C417.633021,325.406386 414.722871,322.496237 414.722871,318.906386 C414.722871,315.316535 417.633021,312.406386 421.222871,312.406386 Z M309.5,312.406386 C313.089851,312.406386 316,315.316535 316,318.906386 C316,322.496237 313.089851,325.406386 309.5,325.406386 C305.910149,325.406386 303,322.496237 303,318.906386 C303,315.316535 305.910149,312.406386 309.5,312.406386 Z M643.254401,312.406386 C646.844252,312.406386 649.754401,315.316535 649.754401,318.906386 C649.754401,322.496237 646.844252,325.406386 643.254401,325.406386 C639.66455,325.406386 636.754401,322.496237 636.754401,318.906386 C636.754401,315.316535 639.66455,312.406386 643.254401,312.406386 Z M383.039105,312.406386 C386.628956,312.406386 389.539105,315.316535 389.539105,318.906386 C389.539105,322.496237 386.628956,325.406386 383.039105,325.406386 C379.449254,325.406386 376.539105,322.496237 376.539105,318.906386 C376.539105,315.316535 379.449254,312.406386 383.039105,312.406386 Z M531.531529,312.406386 C535.12138,312.406386 538.031529,315.316535 538.031529,318.906386 C538.031529,322.496237 535.12138,325.406386 531.531529,325.406386 C527.941678,325.406386 525.031529,322.496237 525.031529,318.906386 C525.031529,315.316535 527.941678,312.406386 531.531529,312.406386 Z M457.992424,312.406386 C461.582275,312.406386 464.492424,315.316535 464.492424,318.906386 C464.492424,322.496237 461.582275,325.406386 457.992424,325.406386 C454.402573,325.406386 451.492424,322.496237 451.492424,318.906386 C451.492424,315.316535 454.402573,312.406386 457.992424,312.406386 Z M568.301082,312.406386 C571.890933,312.406386 574.801082,315.316535 574.801082,318.906386 C574.801082,322.496237 571.890933,325.406386 568.301082,325.406386 C564.711231,325.406386 561.801082,322.496237 561.801082,318.906386 C561.801082,315.316535 564.711231,312.406386 568.301082,312.406386 Z M606.484848,312.406386 C610.074699,312.406386 612.984848,315.316535 612.984848,318.906386 C612.984848,322.496237 610.074699,325.406386 606.484848,325.406386 C602.894997,325.406386 599.984848,322.496237 599.984848,318.906386 C599.984848,315.316535 602.894997,312.406386 606.484848,312.406386 Z M346.269553,275.636833 C349.859403,275.636833 352.769553,278.546982 352.769553,282.136833 C352.769553,285.726684 349.859403,288.636833 346.269553,288.636833 C342.679702,288.636833 339.769553,285.726684 339.769553,282.136833 C339.769553,278.546982 342.679702,275.636833 346.269553,275.636833 Z M643.254401,275.636833 C646.844252,275.636833 649.754401,278.546982 649.754401,282.136833 C649.754401,285.726684 646.844252,288.636833 643.254401,288.636833 C639.66455,288.636833 636.754401,285.726684 636.754401,282.136833 C636.754401,278.546982 639.66455,275.636833 643.254401,275.636833 Z M383.039105,275.636833 C386.628956,275.636833 389.539105,278.546982 389.539105,282.136833 C389.539105,285.726684 386.628956,288.636833 383.039105,288.636833 C379.449254,288.636833 376.539105,285.726684 376.539105,282.136833 C376.539105,278.546982 379.449254,275.636833 383.039105,275.636833 Z M494.761977,275.636833 C498.351828,275.636833 501.261977,278.546982 501.261977,282.136833 C501.261977,285.726684 498.351828,288.636833 494.761977,288.636833 C491.172126,288.636833 488.261977,285.726684 488.261977,282.136833 C488.261977,278.546982 491.172126,275.636833 494.761977,275.636833 Z M531.531529,275.636833 C535.12138,275.636833 538.031529,278.546982 538.031529,282.136833 C538.031529,285.726684 535.12138,288.636833 531.531529,288.636833 C527.941678,288.636833 525.031529,285.726684 525.031529,282.136833 C525.031529,278.546982 527.941678,275.636833 531.531529,275.636833 Z M680.023953,275.636833 C683.613804,275.636833 686.523953,278.546982 686.523953,282.136833 C686.523953,285.726684 683.613804,288.636833 680.023953,288.636833 C676.434102,288.636833 673.523953,285.726684 673.523953,282.136833 C673.523953,278.546982 676.434102,275.636833 680.023953,275.636833 Z M309.5,275.636833 C313.089851,275.636833 316,278.546982 316,282.136833 C316,285.726684 313.089851,288.636833 309.5,288.636833 C305.910149,288.636833 303,285.726684 303,282.136833 C303,278.546982 305.910149,275.636833 309.5,275.636833 Z M568.301082,275.636833 C571.890933,275.636833 574.801082,278.546982 574.801082,282.136833 C574.801082,285.726684 571.890933,288.636833 568.301082,288.636833 C564.711231,288.636833 561.801082,285.726684 561.801082,282.136833 C561.801082,278.546982 564.711231,275.636833 568.301082,275.636833 Z M606.484848,275.636833 C610.074699,275.636833 612.984848,278.546982 612.984848,282.136833 C612.984848,285.726684 610.074699,288.636833 606.484848,288.636833 C602.894997,288.636833 599.984848,285.726684 599.984848,282.136833 C599.984848,278.546982 602.894997,275.636833 606.484848,275.636833 Z M421.222871,275.636833 C424.812722,275.636833 427.722871,278.546982 427.722871,282.136833 C427.722871,285.726684 424.812722,288.636833 421.222871,288.636833 C417.633021,288.636833 414.722871,285.726684 414.722871,282.136833 C414.722871,278.546982 417.633021,275.636833 421.222871,275.636833 Z M457.992424,275.636833 C461.582275,275.636833 464.492424,278.546982 464.492424,282.136833 C464.492424,285.726684 461.582275,288.636833 457.992424,288.636833 C454.402573,288.636833 451.492424,285.726684 451.492424,282.136833 C451.492424,278.546982 454.402573,275.636833 457.992424,275.636833 Z M346.269553,238.86728 C349.859403,238.86728 352.769553,241.77743 352.769553,245.36728 C352.769553,248.957131 349.859403,251.86728 346.269553,251.86728 C342.679702,251.86728 339.769553,248.957131 339.769553,245.36728 C339.769553,241.77743 342.679702,238.86728 346.269553,238.86728 Z M643.254401,238.86728 C646.844252,238.86728 649.754401,241.77743 649.754401,245.36728 C649.754401,248.957131 646.844252,251.86728 643.254401,251.86728 C639.66455,251.86728 636.754401,248.957131 636.754401,245.36728 C636.754401,241.77743 639.66455,238.86728 643.254401,238.86728 Z M383.039105,238.86728 C386.628956,238.86728 389.539105,241.77743 389.539105,245.36728 C389.539105,248.957131 386.628956,251.86728 383.039105,251.86728 C379.449254,251.86728 376.539105,248.957131 376.539105,245.36728 C376.539105,241.77743 379.449254,238.86728 383.039105,238.86728 Z M494.761977,238.86728 C498.351828,238.86728 501.261977,241.77743 501.261977,245.36728 C501.261977,248.957131 498.351828,251.86728 494.761977,251.86728 C491.172126,251.86728 488.261977,248.957131 488.261977,245.36728 C488.261977,241.77743 491.172126,238.86728 494.761977,238.86728 Z M531.531529,238.86728 C535.12138,238.86728 538.031529,241.77743 538.031529,245.36728 C538.031529,248.957131 535.12138,251.86728 531.531529,251.86728 C527.941678,251.86728 525.031529,248.957131 525.031529,245.36728 C525.031529,241.77743 527.941678,238.86728 531.531529,238.86728 Z M680.023953,238.86728 C683.613804,238.86728 686.523953,241.77743 686.523953,245.36728 C686.523953,248.957131 683.613804,251.86728 680.023953,251.86728 C676.434102,251.86728 673.523953,248.957131 673.523953,245.36728 C673.523953,241.77743 676.434102,238.86728 680.023953,238.86728 Z M309.5,238.86728 C313.089851,238.86728 316,241.77743 316,245.36728 C316,248.957131 313.089851,251.86728 309.5,251.86728 C305.910149,251.86728 303,248.957131 303,245.36728 C303,241.77743 305.910149,238.86728 309.5,238.86728 Z M568.301082,238.86728 C571.890933,238.86728 574.801082,241.77743 574.801082,245.36728 C574.801082,248.957131 571.890933,251.86728 568.301082,251.86728 C564.711231,251.86728 561.801082,248.957131 561.801082,245.36728 C561.801082,241.77743 564.711231,238.86728 568.301082,238.86728 Z M606.484848,238.86728 C610.074699,238.86728 612.984848,241.77743 612.984848,245.36728 C612.984848,248.957131 610.074699,251.86728 606.484848,251.86728 C602.894997,251.86728 599.984848,248.957131 599.984848,245.36728 C599.984848,241.77743 602.894997,238.86728 606.484848,238.86728 Z M421.222871,238.86728 C424.812722,238.86728 427.722871,241.77743 427.722871,245.36728 C427.722871,248.957131 424.812722,251.86728 421.222871,251.86728 C417.633021,251.86728 414.722871,248.957131 414.722871,245.36728 C414.722871,241.77743 417.633021,238.86728 421.222871,238.86728 Z M457.992424,238.86728 C461.582275,238.86728 464.492424,241.77743 464.492424,245.36728 C464.492424,248.957131 461.582275,251.86728 457.992424,251.86728 C454.402573,251.86728 451.492424,248.957131 451.492424,245.36728 C451.492424,241.77743 454.402573,238.86728 457.992424,238.86728 Z M309.5,200.683514 C313.089851,200.683514 316,203.593663 316,207.183514 C316,210.773365 313.089851,213.683514 309.5,213.683514 C305.910149,213.683514 303,210.773365 303,207.183514 C303,203.593663 305.910149,200.683514 309.5,200.683514 Z M457.992424,200.683514 C461.582275,200.683514 464.492424,203.593663 464.492424,207.183514 C464.492424,210.773365 461.582275,213.683514 457.992424,213.683514 C454.402573,213.683514 451.492424,210.773365 451.492424,207.183514 C451.492424,203.593663 454.402573,200.683514 457.992424,200.683514 Z M346.269553,200.683514 C349.859403,200.683514 352.769553,203.593663 352.769553,207.183514 C352.769553,210.773365 349.859403,213.683514 346.269553,213.683514 C342.679702,213.683514 339.769553,210.773365 339.769553,207.183514 C339.769553,203.593663 342.679702,200.683514 346.269553,200.683514 Z M643.254401,200.683514 C646.844252,200.683514 649.754401,203.593663 649.754401,207.183514 C649.754401,210.773365 646.844252,213.683514 643.254401,213.683514 C639.66455,213.683514 636.754401,210.773365 636.754401,207.183514 C636.754401,203.593663 639.66455,200.683514 643.254401,200.683514 Z M383.039105,200.683514 C386.628956,200.683514 389.539105,203.593663 389.539105,207.183514 C389.539105,210.773365 386.628956,213.683514 383.039105,213.683514 C379.449254,213.683514 376.539105,210.773365 376.539105,207.183514 C376.539105,203.593663 379.449254,200.683514 383.039105,200.683514 Z M494.761977,200.683514 C498.351828,200.683514 501.261977,203.593663 501.261977,207.183514 C501.261977,210.773365 498.351828,213.683514 494.761977,213.683514 C491.172126,213.683514 488.261977,210.773365 488.261977,207.183514 C488.261977,203.593663 491.172126,200.683514 494.761977,200.683514 Z M531.531529,200.683514 C535.12138,200.683514 538.031529,203.593663 538.031529,207.183514 C538.031529,210.773365 535.12138,213.683514 531.531529,213.683514 C527.941678,213.683514 525.031529,210.773365 525.031529,207.183514 C525.031529,203.593663 527.941678,200.683514 531.531529,200.683514 Z M680.023953,200.683514 C683.613804,200.683514 686.523953,203.593663 686.523953,207.183514 C686.523953,210.773365 683.613804,213.683514 680.023953,213.683514 C676.434102,213.683514 673.523953,210.773365 673.523953,207.183514 C673.523953,203.593663 676.434102,200.683514 680.023953,200.683514 Z M568.301082,200.683514 C571.890933,200.683514 574.801082,203.593663 574.801082,207.183514 C574.801082,210.773365 571.890933,213.683514 568.301082,213.683514 C564.711231,213.683514 561.801082,210.773365 561.801082,207.183514 C561.801082,203.593663 564.711231,200.683514 568.301082,200.683514 Z M606.484848,200.683514 C610.074699,200.683514 612.984848,203.593663 612.984848,207.183514 C612.984848,210.773365 610.074699,213.683514 606.484848,213.683514 C602.894997,213.683514 599.984848,210.773365 599.984848,207.183514 C599.984848,203.593663 602.894997,200.683514 606.484848,200.683514 Z M421.222871,200.683514 C424.812722,200.683514 427.722871,203.593663 427.722871,207.183514 C427.722871,210.773365 424.812722,213.683514 421.222871,213.683514 C417.633021,213.683514 414.722871,210.773365 414.722871,207.183514 C414.722871,203.593663 417.633021,200.683514 421.222871,200.683514 Z M457.992424,163.913962 C461.582275,163.913962 464.492424,166.824111 464.492424,170.413962 C464.492424,174.003812 461.582275,176.913962 457.992424,176.913962 C454.402573,176.913962 451.492424,174.003812 451.492424,170.413962 C451.492424,166.824111 454.402573,163.913962 457.992424,163.913962 Z M680.023953,163.913962 C683.613804,163.913962 686.523953,166.824111 686.523953,170.413962 C686.523953,174.003812 683.613804,176.913962 680.023953,176.913962 C676.434102,176.913962 673.523953,174.003812 673.523953,170.413962 C673.523953,166.824111 676.434102,163.913962 680.023953,163.913962 Z M421.222871,163.913962 C424.812722,163.913962 427.722871,166.824111 427.722871,170.413962 C427.722871,174.003812 424.812722,176.913962 421.222871,176.913962 C417.633021,176.913962 414.722871,174.003812 414.722871,170.413962 C414.722871,166.824111 417.633021,163.913962 421.222871,163.913962 Z M494.761977,163.913962 C498.351828,163.913962 501.261977,166.824111 501.261977,170.413962 C501.261977,174.003812 498.351828,176.913962 494.761977,176.913962 C491.172126,176.913962 488.261977,174.003812 488.261977,170.413962 C488.261977,166.824111 491.172126,163.913962 494.761977,163.913962 Z M568.301082,163.913962 C571.890933,163.913962 574.801082,166.824111 574.801082,170.413962 C574.801082,174.003812 571.890933,176.913962 568.301082,176.913962 C564.711231,176.913962 561.801082,174.003812 561.801082,170.413962 C561.801082,166.824111 564.711231,163.913962 568.301082,163.913962 Z M309.5,163.913962 C313.089851,163.913962 316,166.824111 316,170.413962 C316,174.003812 313.089851,176.913962 309.5,176.913962 C305.910149,176.913962 303,174.003812 303,170.413962 C303,166.824111 305.910149,163.913962 309.5,163.913962 Z M606.484848,163.913962 C610.074699,163.913962 612.984848,166.824111 612.984848,170.413962 C612.984848,174.003812 610.074699,176.913962 606.484848,176.913962 C602.894997,176.913962 599.984848,174.003812 599.984848,170.413962 C599.984848,166.824111 602.894997,163.913962 606.484848,163.913962 Z M346.269553,163.913962 C349.859403,163.913962 352.769553,166.824111 352.769553,170.413962 C352.769553,174.003812 349.859403,176.913962 346.269553,176.913962 C342.679702,176.913962 339.769553,174.003812 339.769553,170.413962 C339.769553,166.824111 342.679702,163.913962 346.269553,163.913962 Z M383.039105,163.913962 C386.628956,163.913962 389.539105,166.824111 389.539105,170.413962 C389.539105,174.003812 386.628956,176.913962 383.039105,176.913962 C379.449254,176.913962 376.539105,174.003812 376.539105,170.413962 C376.539105,166.824111 379.449254,163.913962 383.039105,163.913962 Z M643.254401,163.913962 C646.844252,163.913962 649.754401,166.824111 649.754401,170.413962 C649.754401,174.003812 646.844252,176.913962 643.254401,176.913962 C639.66455,176.913962 636.754401,174.003812 636.754401,170.413962 C636.754401,166.824111 639.66455,163.913962 643.254401,163.913962 Z M531.531529,163.913962 C535.12138,163.913962 538.031529,166.824111 538.031529,170.413962 C538.031529,174.003812 535.12138,176.913962 531.531529,176.913962 C527.941678,176.913962 525.031529,174.003812 525.031529,170.413962 C525.031529,166.824111 527.941678,163.913962 531.531529,163.913962 Z M309.5,127.144409 C313.089851,127.144409 316,130.054558 316,133.644409 C316,137.23426 313.089851,140.144409 309.5,140.144409 C305.910149,140.144409 303,137.23426 303,133.644409 C303,130.054558 305.910149,127.144409 309.5,127.144409 Z M346.269553,127.144409 C349.859403,127.144409 352.769553,130.054558 352.769553,133.644409 C352.769553,137.23426 349.859403,140.144409 346.269553,140.144409 C342.679702,140.144409 339.769553,137.23426 339.769553,133.644409 C339.769553,130.054558 342.679702,127.144409 346.269553,127.144409 Z M383.039105,127.144409 C386.628956,127.144409 389.539105,130.054558 389.539105,133.644409 C389.539105,137.23426 386.628956,140.144409 383.039105,140.144409 C379.449254,140.144409 376.539105,137.23426 376.539105,133.644409 C376.539105,130.054558 379.449254,127.144409 383.039105,127.144409 Z M421.222871,127.144409 C424.812722,127.144409 427.722871,130.054558 427.722871,133.644409 C427.722871,137.23426 424.812722,140.144409 421.222871,140.144409 C417.633021,140.144409 414.722871,137.23426 414.722871,133.644409 C414.722871,130.054558 417.633021,127.144409 421.222871,127.144409 Z M457.992424,127.144409 C461.582275,127.144409 464.492424,130.054558 464.492424,133.644409 C464.492424,137.23426 461.582275,140.144409 457.992424,140.144409 C454.402573,140.144409 451.492424,137.23426 451.492424,133.644409 C451.492424,130.054558 454.402573,127.144409 457.992424,127.144409 Z M494.761977,127.144409 C498.351828,127.144409 501.261977,130.054558 501.261977,133.644409 C501.261977,137.23426 498.351828,140.144409 494.761977,140.144409 C491.172126,140.144409 488.261977,137.23426 488.261977,133.644409 C488.261977,130.054558 491.172126,127.144409 494.761977,127.144409 Z M531.531529,127.144409 C535.12138,127.144409 538.031529,130.054558 538.031529,133.644409 C538.031529,137.23426 535.12138,140.144409 531.531529,140.144409 C527.941678,140.144409 525.031529,137.23426 525.031529,133.644409 C525.031529,130.054558 527.941678,127.144409 531.531529,127.144409 Z M568.301082,127.144409 C571.890933,127.144409 574.801082,130.054558 574.801082,133.644409 C574.801082,137.23426 571.890933,140.144409 568.301082,140.144409 C564.711231,140.144409 561.801082,137.23426 561.801082,133.644409 C561.801082,130.054558 564.711231,127.144409 568.301082,127.144409 Z M606.484848,127.144409 C610.074699,127.144409 612.984848,130.054558 612.984848,133.644409 C612.984848,137.23426 610.074699,140.144409 606.484848,140.144409 C602.894997,140.144409 599.984848,137.23426 599.984848,133.644409 C599.984848,130.054558 602.894997,127.144409 606.484848,127.144409 Z M643.254401,127.144409 C646.844252,127.144409 649.754401,130.054558 649.754401,133.644409 C649.754401,137.23426 646.844252,140.144409 643.254401,140.144409 C639.66455,140.144409 636.754401,137.23426 636.754401,133.644409 C636.754401,130.054558 639.66455,127.144409 643.254401,127.144409 Z M680.023953,127.144409 C683.613804,127.144409 686.523953,130.054558 686.523953,133.644409 C686.523953,137.23426 683.613804,140.144409 680.023953,140.144409 C676.434102,140.144409 673.523953,137.23426 673.523953,133.644409 C673.523953,130.054558 676.434102,127.144409 680.023953,127.144409 Z" id="Combined-Shape-Copy拷貝" fill="#64C4ED" fill-rule="nonzero" opacity="0.0920293899" mask="url(#mask-2)" transform="translate(494.761977, 318.906386) rotate(45.000000) translate(-494.761977, -318.906386) "></path>
                <circle id="橢圓形" fill="#64C4ED" opacity="0.0554780506" mask="url(#mask-2)" cx="81" cy="1046.14441" r="223"></circle>
                <circle id="橢圓形copy" fill="#64C4ED" opacity="0.0608723958" mask="url(#mask-2)" cx="1547" cy="671.144409" r="95"></circle>
                <rect id="矩形" fill="#64C4ED" opacity="0.258533296" mask="url(#mask-2)" transform="translate(277.000000, 248.144409) rotate(30.000000) translate(-277.000000, -248.144409) " x="249" y="220.144409" width="56" height="56" rx="2"></rect>
                <rect id="矩形copy" fill="#64C4ED" opacity="0.0717075893" mask="url(#mask-2)" transform="translate(356.000000, 745.644409) rotate(-19.000000) translate(-356.000000, -745.644409) " x="346" y="710.144409" width="20" height="71" rx="2"></rect>
                <rect id="矩形copycopycopycopycopycopy" fill="#64C4ED" opacity="0.0717075893" mask="url(#mask-2)" transform="translate(48.000000, 469.644409) rotate(10.000000) translate(-48.000000, -469.644409) " x="38" y="434.144409" width="20" height="71" rx="2"></rect>
                <rect id="矩形copycopycopycopycopycopycopy" fill="#64C4ED" opacity="0.0717075893" mask="url(#mask-2)" transform="translate(817.670629, 1007.951077) rotate(25.000000) translate(-817.670629, -1007.951077) " x="807.670629" y="981.451077" width="20" height="53" rx="2"></rect>
                <rect id="矩形copycopycopycopycopycopycopycopycopycopycopy" fill="#64C4ED" opacity="0.0717075893" mask="url(#mask-2)" transform="translate(1877.000000, 540.644409) rotate(-15.000000) translate(-1877.000000, -540.644409) " x="1867" y="514.144409" width="20" height="53" rx="2"></rect>
                <rect id="矩形copycopycopycopycopycopycopycopycopycopy" fill="#64C4ED" opacity="0.0717075893" mask="url(#mask-2)" transform="translate(1588.000000, 397.644409) rotate(-30.000000) translate(-1588.000000, -397.644409) " x="1578" y="362.144409" width="20" height="71" rx="2"></rect>
                <rect id="矩形copycopycopy" fill="#64C4ED" opacity="0.0717075893" mask="url(#mask-2)" transform="translate(1171.000000, 140.644409) rotate(19.000000) translate(-1171.000000, -140.644409) " x="1161" y="105.144409" width="20" height="71" rx="2"></rect>
                <rect id="矩形copycopycopycopycopy" fill="#64C4ED" opacity="0.0717075893" mask="url(#mask-2)" transform="translate(1699.000000, 942.644409) rotate(20.000000) translate(-1699.000000, -942.644409) " x="1689" y="907.144409" width="20" height="71" rx="2"></rect>
                <path d="M1890.5263,-152.280816 L2098.10899,206.606588 C2100.8742,211.387327 2099.24029,217.504527 2094.45955,220.269735 C2092.87347,221.187134 2091.06582,221.651126 2089.23398,221.61105 L1672.53411,212.494753 C1667.01259,212.373957 1662.63443,207.799951 1662.75523,202.278424 C1662.79313,200.545923 1663.2806,198.853006 1664.16984,197.365646 L1873.28702,-152.405463 C1876.12107,-157.145717 1882.26125,-158.691001 1887.00151,-155.856952 C1888.46146,-154.984089 1889.67464,-153.753242 1890.5263,-152.280816 Z" id="三角形" fill="#64C4ED" opacity="0.100841704" mask="url(#mask-2)" transform="translate(1881.181016, 27.500000) rotate(10.000000) translate(-1881.181016, -27.500000) "></path>
                <path d="M1898.41347,885.553072 L1930.57722,941.457148 C1931.95432,943.850694 1931.13033,946.907405 1928.73678,948.284503 C1927.94591,948.739525 1927.04559,948.96946 1926.13338,948.949396 L1861.56811,947.529346 C1858.80736,947.468626 1856.61854,945.181368 1856.67926,942.420612 C1856.69823,941.558524 1856.93982,940.715992 1857.38057,939.974851 L1889.78209,885.490825 C1891.19356,883.11739 1894.26184,882.337568 1896.63527,883.749044 C1897.37303,884.187785 1897.98541,884.809065 1898.41347,885.553072 Z" id="三角形copy" fill="#64C4ED" opacity="0.100841704" mask="url(#mask-2)" transform="translate(1894.000000, 913.644409) rotate(-20.000000) translate(-1894.000000, -913.644409) "></path>
                <rect id="矩形copycopycopycopycopycopycopycopycopycopycopycopy" fill="#64C4ED" opacity="0.0717075893" mask="url(#mask-2)" transform="translate(118.000000, 47.644409) rotate(-15.000000) translate(-118.000000, -47.644409) " x="108" y="21.144409" width="20" height="53" rx="2"></rect>
            </g>
        </g>
    </g>
</svg>